<svg width="14" height="14" viewBox="0 0 14 14" fill="none" xmlns="http://www.w3.org/2000/svg">
<path d="M12.7143 0.333374H1.28278C0.758969 0.333374 0.333374 0.764922 0.333374 1.29468V12.7054C0.333374 13.2352 0.758969 13.6667 1.28278 13.6667H12.7143C13.2381 13.6667 13.6667 13.2352 13.6667 12.7054V1.29468C13.6667 0.764922 13.2381 0.333374 12.7143 0.333374ZM4.36314 11.7619H2.38695V5.39885H4.36611V11.7619H4.36314ZM3.37504 4.5298C2.74111 4.5298 2.22921 4.01492 2.22921 3.38397C2.22921 2.75302 2.74111 2.23814 3.37504 2.23814C4.00599 2.23814 4.52087 2.75302 4.52087 3.38397C4.52087 4.0179 4.00897 4.5298 3.37504 4.5298V4.5298ZM11.7709 11.7619H9.79468V8.66671C9.79468 7.92861 9.7798 6.97921 8.7679 6.97921C7.73814 6.97921 7.5804 7.78278 7.5804 8.61314V11.7619H5.60421V5.39885H7.50004V6.2679H7.52683C7.79171 5.7679 8.43754 5.24111 9.39885 5.24111C11.3989 5.24111 11.7709 6.55956 11.7709 8.27385V11.7619V11.7619Z" fill="white"/>
</svg>
